<svg xmlns="http://www.w3.org/2000/svg" width="674.364501953125" height="663.7266845703125" viewBox="-280.42779541015625 -225.68362426757812 674.364501953125 663.7266845703125"><title>Neo4j Graph Visualization</title><desc>Created using Neo4j (http://www.neo4j.com/)</desc><g class="layer relationships"><g class="relationship" transform="translate(284.8738434046095 203.24768804375893) rotate(502.3424517560053)"><path class="outline" fill="#A5ABB6" stroke="none" d="M 40 0.5 L 45.25098870295248 0.5 L 45.25098870295248 -0.5 L 40 -0.5 Z M 107.72364495295248 0.5 L 112.97463365590497 0.5 L 112.97463365590497 3.5 L 119.97463365590497 0 L 112.97463365590497 -3.5 L 112.97463365590497 -0.5 L 107.72364495295248 -0.5 Z"/><text text-anchor="middle" pointer-events="none" font-size="8px" fill="#000000" x="76.48731682795248" y="3" transform="rotate(180 76.48731682795248 0)" font-family="sans-serif">specializationOf</text></g><g class="relationship" transform="translate(273.6763270617902 309.76892045073333) rotate(184.35203568238387)"><path class="outline" fill="#A5ABB6" stroke="none" d="M 40 0.5 L 40.94301983641199 0.5 L 40.94301983641199 -0.5 L 40 -0.5 Z M 67.84145733641199 0.5 L 68.78447717282398 0.5 L 68.78447717282398 3.5 L 75.78447717282398 0 L 68.78447717282398 -3.5 L 68.78447717282398 -0.5 L 67.84145733641199 -0.5 Z"/><text text-anchor="middle" pointer-events="none" font-size="8px" fill="#000000" x="54.39223858641199" y="3" transform="rotate(180 54.39223858641199 0)" font-family="sans-serif">spe…</text></g><g class="relationship" transform="translate(57.73441497307754 394.04307459953344) rotate(317.1986396236078)"><path class="outline" fill="#A5ABB6" stroke="none" d="M 40 0.5 L 41.53399642722593 0.5 L 41.53399642722593 -0.5 L 40 -0.5 Z M 88.42852767722593 0.5 L 89.96252410445186 0.5 L 89.96252410445186 3.5 L 96.96252410445186 0 L 89.96252410445186 -3.5 L 89.96252410445186 -0.5 L 88.42852767722593 -0.5 Z"/><text text-anchor="middle" pointer-events="none" font-size="8px" fill="#000000" x="64.98126205222593" y="3" font-family="sans-serif">wasDeriv…</text></g><g class="relationship" transform="translate(284.8738434046095 203.24768804375893) rotate(456.0008957188186)"><path class="outline" fill="#A5ABB6" stroke="none" d="M 40 0.5 L 40.8294691945832 0.5 L 40.8294691945832 -0.5 L 40 -0.5 Z M 59.2786879445832 0.5 L 60.108157139166394 0.5 L 60.108157139166394 3.5 L 67.1081571391664 0 L 60.108157139166394 -3.5 L 60.108157139166394 -0.5 L 59.2786879445832 -0.5 Z"/><text text-anchor="middle" pointer-events="none" font-size="8px" fill="#000000" x="50.0540785695832" y="3" transform="rotate(180 50.0540785695832 0)" font-family="sans-serif">a…</text></g><g class="relationship" transform="translate(273.6763270617902 309.76892045073333) rotate(248.5861674284589)"><path class="outline" fill="#A5ABB6" stroke="none" d="M 40 0.5 L 48.404779984667485 0.5 L 48.404779984667485 -0.5 L 40 -0.5 Z M 114.86181123466748 0.5 L 123.26659121933497 0.5 L 123.26659121933497 3.5 L 130.26659121933497 0 L 123.26659121933497 -3.5 L 123.26659121933497 -0.5 L 114.86181123466748 -0.5 Z"/><text text-anchor="middle" pointer-events="none" font-size="8px" fill="#000000" x="81.63329560966748" y="3" transform="rotate(180 81.63329560966748 0)" font-family="sans-serif">wasDerivedFrom</text></g><g class="relationship" transform="translate(312.6888311956766 55.463758509325906) rotate(496.56592757900324)"><path class="outline" fill="#A5ABB6" stroke="none" d="M 40 0.5 L 40.493400029671264 0.5 L 40.493400029671264 -0.5 L 40 -0.5 Z M 91.83715002967126 0.5 L 92.33055005934253 0.5 L 92.33055005934253 3.5 L 99.33055005934253 0 L 92.33055005934253 -3.5 L 92.33055005934253 -0.5 L 91.83715002967126 -0.5 Z"/><text text-anchor="middle" pointer-events="none" font-size="8px" fill="#000000" x="66.16527502967126" y="3" transform="rotate(180 66.16527502967126 0)" font-family="sans-serif">wasDerive…</text></g><g class="relationship" transform="translate(351.4661550514094 155.0307135088345) rotate(181.54485946138618)"><path class="outline" fill="#A5ABB6" stroke="none" d="M 25 0.5 L 47.32882861895425 0.5 L 47.32882861895425 -0.5 L 25 -0.5 Z M 70.67648486895425 0.5 L 93.0053134879085 0.5 L 93.0053134879085 3.5 L 100.0053134879085 0 L 93.0053134879085 -3.5 L 93.0053134879085 -0.5 L 70.67648486895425 -0.5 Z"/><text text-anchor="middle" pointer-events="none" font-size="8px" fill="#000000" x="59.00265674395425" y="3" transform="rotate(180 59.00265674395425 0)" font-family="sans-serif">used</text></g><g class="relationship" transform="translate(101.96244384013721 69.85140349535773) rotate(396.6156177086544)"><path class="outline" fill="#A5ABB6" stroke="none" d="M 25 0.5 L 45.56800457514372 0.5 L 45.56800457514372 -0.5 L 25 -0.5 Z M 68.91566082514372 0.5 L 89.48366540028744 0.5 L 89.48366540028744 3.5 L 96.48366540028744 0 L 89.48366540028744 -3.5 L 89.48366540028744 -0.5 L 68.91566082514372 -0.5 Z"/><text text-anchor="middle" pointer-events="none" font-size="8px" fill="#000000" x="57.24183270014372" y="3" font-family="sans-serif">used</text></g><g class="relationship" transform="translate(284.8738434046095 203.24768804375893) rotate(280.65916371605965)"><path class="outline" fill="#A5ABB6" stroke="none" d="M 40 0.5 L 40.01749155946683 0.5 L 40.01749155946683 -0.5 L 40 -0.5 Z M 103.36124155946683 0.5 L 103.37873311893367 0.5 L 103.37873311893367 3.5 L 110.37873311893367 0 L 103.37873311893367 -3.5 L 103.37873311893367 -0.5 L 103.36124155946683 -0.5 Z"/><text text-anchor="middle" pointer-events="none" font-size="8px" fill="#000000" x="71.68936655946683" y="3" font-family="sans-serif">wasDerivedFr…</text></g><g class="relationship" transform="translate(349.93669732343517 -77.2361293350176) rotate(465.6790337559986)"><path class="outline" fill="#A5ABB6" stroke="none" d="M 40 0.5 L 41.96692697161389 0.5 L 41.96692697161389 -0.5 L 40 -0.5 Z M 88.86145822161389 0.5 L 90.82838519322777 0.5 L 90.82838519322777 3.5 L 97.82838519322777 0 L 90.82838519322777 -3.5 L 90.82838519322777 -0.5 L 88.86145822161389 -0.5 Z"/><text text-anchor="middle" pointer-events="none" font-size="8px" fill="#000000" x="65.41419259661389" y="3" transform="rotate(180 65.41419259661389 0)" font-family="sans-serif">wasDeriv…</text></g><g class="relationship" transform="translate(101.96244384013721 69.85140349535773) rotate(293.3041454616248)"><path class="outline" fill="#A5ABB6" stroke="none" d="M 25 0.5 L 42.852356834533 0.5 L 42.852356834533 -0.5 L 25 -0.5 Z M 66.200013084533 0.5 L 84.052369919066 0.5 L 84.052369919066 3.5 L 91.052369919066 0 L 84.052369919066 -3.5 L 84.052369919066 -0.5 L 66.200013084533 -0.5 Z"/><text text-anchor="middle" pointer-events="none" font-size="8px" fill="#000000" x="54.526184959533" y="3" font-family="sans-serif">used</text></g><g class="relationship" transform="translate(-79.59753359524481 3.493514045933683) rotate(337.50799960191375)"><path class="outline" fill="#A5ABB6" stroke="none" d="M 25 0.5 L 39.30216948470182 0.5 L 39.30216948470182 -0.5 L 25 -0.5 Z M 62.64982573470182 0.5 L 76.95199521940364 0.5 L 76.95199521940364 3.5 L 83.95199521940364 0 L 76.95199521940364 -3.5 L 76.95199521940364 -0.5 L 62.64982573470182 -0.5 Z"/><text text-anchor="middle" pointer-events="none" font-size="8px" fill="#000000" x="50.97599760970182" y="3" font-family="sans-serif">used</text></g><g class="relationship" transform="translate(-137.9101514023019 110.66099651880808) rotate(194.1782390182927)"><path class="outline" fill="#A5ABB6" stroke="none" d="M 40 0.5 L 40.86827137027806 0.5 L 40.86827137027806 -0.5 L 40 -0.5 Z M 84.21592762027805 0.5 L 85.08419899055612 0.5 L 85.08419899055612 3.5 L 92.08419899055612 0 L 85.08419899055612 -3.5 L 85.08419899055612 -0.5 L 84.21592762027805 -0.5 Z"/><text text-anchor="middle" pointer-events="none" font-size="8px" fill="#000000" x="62.54209949527806" y="3" transform="rotate(180 62.54209949527806 0)" font-family="sans-serif">wasGen…</text></g><g class="relationship" transform="translate(34.9257994443136 -43.92487171720101) rotate(419.4935339221435)"><path class="outline" fill="#A5ABB6" stroke="none" d="M 40 0.5 L 41.461906792769796 0.5 L 41.461906792769796 -0.5 L 40 -0.5 Z M 98.5947192927698 0.5 L 100.05662608553959 0.5 L 100.05662608553959 3.5 L 107.05662608553959 0 L 100.05662608553959 -3.5 L 100.05662608553959 -0.5 L 98.5947192927698 -0.5 Z"/><text text-anchor="middle" pointer-events="none" font-size="8px" fill="#000000" x="70.0283130427698" y="3" font-family="sans-serif">wasGenerat…</text></g><g class="relationship" transform="translate(312.6888311956766 55.463758509325906) rotate(428.7210875671888)"><path class="outline" fill="#A5ABB6" stroke="none" d="M 40 0.5 L 40.201178811246145 0.5 L 40.201178811246145 -0.5 L 40 -0.5 Z M 74.65039756124614 0.5 L 74.85157637249229 0.5 L 74.85157637249229 3.5 L 81.85157637249229 0 L 74.85157637249229 -3.5 L 74.85157637249229 -0.5 L 74.65039756124614 -0.5 Z"/><text text-anchor="middle" pointer-events="none" font-size="8px" fill="#000000" x="57.425788186246145" y="3" font-family="sans-serif">wasG…</text></g><g class="relationship" transform="translate(-137.9101514023019 110.66099651880808) rotate(298.55176288312447)"><path class="outline" fill="#A5ABB6" stroke="none" d="M 40 0.5 L 41.10408436402984 0.5 L 41.10408436402984 -0.5 L 40 -0.5 Z M 88.90095936402983 0.5 L 90.00504372805968 0.5 L 90.00504372805968 3.5 L 97.00504372805968 0 L 90.00504372805968 -3.5 L 90.00504372805968 -0.5 L 88.90095936402983 -0.5 Z"/><text text-anchor="middle" pointer-events="none" font-size="8px" fill="#000000" x="65.00252186402983" y="3" font-family="sans-serif">wasGene…</text></g><g class="relationship" transform="translate(-137.9101514023019 110.66099651880808) rotate(353.16844693644885)"><path class="outline" fill="#A5ABB6" stroke="none" d="M 40 0.5 L 40.67729744253591 0.5 L 40.67729744253591 -0.5 L 40 -0.5 Z M 92.02495369253592 0.5 L 92.70225113507182 0.5 L 92.70225113507182 3.5 L 99.70225113507182 0 L 92.70225113507182 -3.5 L 92.70225113507182 -0.5 L 92.02495369253592 -0.5 Z"/><text text-anchor="middle" pointer-events="none" font-size="8px" fill="#000000" x="66.35112556753592" y="3" font-family="sans-serif">wasAttribu…</text></g><g class="relationship" transform="translate(-79.59753359524481 3.493514045933683) rotate(414.64708279781314)"><path class="outline" fill="#A5ABB6" stroke="none" d="M 25 0.5 L 27.210208197778982 0.5 L 27.210208197778982 -0.5 L 25 -0.5 Z M 78.99927069777898 0.5 L 81.20947889555796 0.5 L 81.20947889555796 3.5 L 88.20947889555796 0 L 81.20947889555796 -3.5 L 81.20947889555796 -0.5 L 78.99927069777898 -0.5 Z"/><text text-anchor="middle" pointer-events="none" font-size="8px" fill="#000000" x="53.10473944777898" y="3" font-family="sans-serif">wasAssoci…</text></g><g class="relationship" transform="translate(101.96244384013721 69.85140349535773) rotate(527.3837143327899)"><path class="outline" fill="#A5ABB6" stroke="none" d="M 25 0.5 L 26.7331527454102 0.5 L 26.7331527454102 -0.5 L 25 -0.5 Z M 85.1940902454102 0.5 L 86.9272429908204 0.5 L 86.9272429908204 3.5 L 93.9272429908204 0 L 86.9272429908204 -3.5 L 86.9272429908204 -0.5 L 85.1940902454102 -0.5 Z"/><text text-anchor="middle" pointer-events="none" font-size="8px" fill="#000000" x="55.9636214954102" y="3" transform="rotate(180 55.9636214954102 0)" font-family="sans-serif">wasAssociat…</text></g><g class="relationship" transform="translate(-14.093267308111699 95.82756632345556) rotate(468.193395059254)"><path class="outline" fill="#A5ABB6" stroke="none" d="M 25 0.5 L 27.222685092023966 0.5 L 27.222685092023966 -0.5 L 25 -0.5 Z M 81.25002884202397 0.5 L 83.47271393404793 0.5 L 83.47271393404793 3.5 L 90.47271393404793 0 L 83.47271393404793 -3.5 L 83.47271393404793 -0.5 L 81.25002884202397 -0.5 Z"/><text text-anchor="middle" pointer-events="none" font-size="8px" fill="#000000" x="54.236356967023966" y="3" transform="rotate(180 54.236356967023966 0)" font-family="sans-serif">actedOnBe…</text></g></g><g class="layer nodes"><g class="node" transform="translate(158.22569971750013,300.9826925915171)"><circle class="outline" cx="0" cy="0" r="40" fill="#FB95AF" stroke="#E0849B" stroke-width="2px"/><text text-anchor="middle" pointer-events="none" y="5" font-size="10px" fill="#FFFFFF" font-family="sans-serif"> ex:article</text></g><g class="node" transform="translate(273.6763270617902,309.76892045073333)"><circle class="outline" cx="0" cy="0" r="40" fill="#FB95AF" stroke="#E0849B" stroke-width="2px"/><text text-anchor="middle" pointer-events="none" y="5" font-size="10px" fill="#FFFFFF" font-family="sans-serif"> ex:articleV1</text></g><g class="node" transform="translate(284.8738434046095,203.24768804375893)"><circle class="outline" cx="0" cy="0" r="40" fill="#FB95AF" stroke="#E0849B" stroke-width="2px"/><text text-anchor="middle" pointer-events="none" y="5" font-size="10px" fill="#FFFFFF" font-family="sans-serif"> ex:articleV2</text></g><g class="node" transform="translate(211.5117302101029,151.25622384973764)"><circle class="outline" cx="0" cy="0" r="40" fill="#FB95AF" stroke="#E0849B" stroke-width="2px"/><text text-anchor="middle" pointer-events="none" y="5" font-size="10px" fill="#FFFFFF" font-family="sans-serif"> ex:dataSet1</text></g><g class="node" transform="translate(312.6888311956766,55.463758509325906)"><circle class="outline" cx="0" cy="0" r="40" fill="#FB95AF" stroke="#E0849B" stroke-width="2px"/><text text-anchor="middle" pointer-events="none" y="5" font-size="10px" fill="#FFFFFF" font-family="sans-serif"> ex:dataSet2</text></g><g class="node" transform="translate(153.80832783838747,-50.50942058724685)"><circle class="outline" cx="0" cy="0" r="40" fill="#FB95AF" stroke="#E0849B" stroke-width="2px"/><text text-anchor="middle" pointer-events="none" y="5" font-size="10px" fill="#FFFFFF" font-family="sans-serif"> ex:regionList</text></g><g class="node" transform="translate(34.9257994443136,-43.92487171720101)"><circle class="outline" cx="0" cy="0" r="40" fill="#FB95AF" stroke="#E0849B" stroke-width="2px"/><text text-anchor="middle" pointer-events="none" y="5" font-size="10px" fill="#FFFFFF" font-family="sans-serif"> ex:composition</text></g><g class="node" transform="translate(-137.9101514023019,110.66099651880808)"><circle class="outline" cx="0" cy="0" r="40" fill="#FB95AF" stroke="#E0849B" stroke-width="2px"/><text text-anchor="middle" pointer-events="none" y="5" font-size="10px" fill="#FFFFFF" font-family="sans-serif"> ex:chart1</text></g><g class="node" transform="translate(349.93669732343517,-77.2361293350176)"><circle class="outline" cx="0" cy="0" r="40" fill="#FB95AF" stroke="#E0849B" stroke-width="2px"/><text text-anchor="middle" pointer-events="none" y="5" font-size="10px" fill="#FFFFFF" font-family="sans-serif"> ex:chart2</text></g><g class="node" transform="translate(57.73441497307754,394.04307459953344)"><circle class="outline" cx="0" cy="0" r="40" fill="#FB95AF" stroke="#E0849B" stroke-width="2px"/><text text-anchor="middle" pointer-events="none" y="5" font-size="10px" fill="#FFFFFF" font-family="sans-serif"> ex:blogEntry</text></g><g class="node" transform="translate(-251.42778396623106,81.98248975257442)"><circle class="outline" cx="0" cy="0" r="25" fill="#DE9BF9" stroke="#BF85D6" stroke-width="2px"/><text text-anchor="middle" pointer-events="none" y="5" font-size="10px" fill="#FFFFFF" font-family="sans-serif"> ex:comp…</text></g><g class="node" transform="translate(-94.91688123337721,-196.68362079545517)"><circle class="outline" cx="0" cy="0" r="25" fill="#DE9BF9" stroke="#BF85D6" stroke-width="2px"/><text text-anchor="middle" pointer-events="none" y="5" font-size="10px" fill="#FFFFFF" font-family="sans-serif"> ex:comp…</text></g><g class="node" transform="translate(101.96244384013721,69.85140349535773)"><circle class="outline" cx="0" cy="0" r="25" fill="#DE9BF9" stroke="#BF85D6" stroke-width="2px"/><text text-anchor="middle" pointer-events="none" y="5" font-size="10px" fill="#FFFFFF" font-family="sans-serif"> ex:comp…</text></g><g class="node" transform="translate(351.4661550514094,155.0307135088345)"><circle class="outline" cx="0" cy="0" r="25" fill="#DE9BF9" stroke="#BF85D6" stroke-width="2px"/><text text-anchor="middle" pointer-events="none" y="5" font-size="10px" fill="#FFFFFF" font-family="sans-serif"> ex:correct</text></g><g class="node" transform="translate(-79.59753359524481,3.493514045933683)"><circle class="outline" cx="0" cy="0" r="25" fill="#DE9BF9" stroke="#BF85D6" stroke-width="2px"/><text text-anchor="middle" pointer-events="none" y="5" font-size="10px" fill="#FFFFFF" font-family="sans-serif"> ex:illustr…</text></g><g class="node" transform="translate(-14.093267308111699,95.82756632345556)"><circle class="outline" cx="0" cy="0" r="25" fill="#FFD86E" stroke="#EDBA39" stroke-width="2px"/><text text-anchor="middle" pointer-events="none" y="5" font-size="10px" fill="#604A0E" font-family="sans-serif"> ex:derek</text></g><g class="node" transform="translate(-50.146782251237056,205.52757417915402)"><circle class="outline" cx="0" cy="0" r="25" fill="#FFD86E" stroke="#EDBA39" stroke-width="2px"/><text text-anchor="middle" pointer-events="none" y="5" font-size="10px" fill="#604A0E" font-family="sans-serif"> ex:chart…</text></g></g></svg>